<?xml version="1.0" encoding="UTF-8" standalone="no"?>
<svg
   width="24"
   height="24"
   viewBox="0 0 24 24"
   version="1.1"
   id="svg4"
   sodipodi:docname="fa_hourglass-half-solid.svg"
   inkscape:version="1.1.2 (0a00cf5339, 2022-02-04)"
   xmlns:inkscape="http://www.inkscape.org/namespaces/inkscape"
   xmlns:sodipodi="http://sodipodi.sourceforge.net/DTD/sodipodi-0.dtd"
   xmlns="http://www.w3.org/2000/svg"
   xmlns:svg="http://www.w3.org/2000/svg">
  <defs
     id="defs8" />
  <sodipodi:namedview
     id="namedview6"
     pagecolor="#ffffff"
     bordercolor="#666666"
     borderopacity="1.0"
     inkscape:pageshadow="2"
     inkscape:pageopacity="0.0"
     inkscape:pagecheckerboard="0"
     showgrid="false"
     showguides="true"
     inkscape:guide-bbox="true"
     inkscape:snap-bbox="true"
     inkscape:bbox-nodes="true"
     inkscape:zoom="18.145833"
     inkscape:cx="6.3650976"
     inkscape:cy="21.299656"
     inkscape:window-width="1920"
     inkscape:window-height="1042"
     inkscape:window-x="0"
     inkscape:window-y="38"
     inkscape:window-maximized="1"
     inkscape:current-layer="layer2"
     inkscape:snap-bbox-midpoints="true">
    <sodipodi:guide
       position="3,22"
       orientation="0,-1"
       id="guide935" />
    <sodipodi:guide
       position="3,22"
       orientation="1,0"
       id="guide939" />
    <sodipodi:guide
       position="21,2"
       orientation="1,0"
       id="guide941" />
    <sodipodi:guide
       position="21,2"
       orientation="0,-1"
       id="guide943" />
    <sodipodi:guide
       position="12,12"
       orientation="1,0"
       id="guide1019" />
    <sodipodi:guide
       position="12,12"
       orientation="0,-1"
       id="guide1101" />
  </sodipodi:namedview>
  <g
     inkscape:groupmode="layer"
     id="layer2"
     inkscape:label="Layer 1"
     style="display:inline">
    <path
       d="m 5.748047,2 c -0.691406,0 -1.25,0.558594 -1.25,1.25 0,0.691406 0.558594,1.25 1.25,1.25 v 0.429688 c 0,1.656249 0.660156,3.246093 1.832031,4.417968 L 10.228516,12 7.580078,14.652344 C 6.408203,15.824219 5.748047,17.414062 5.748047,19.070312 V 19.5 c -0.691406,0 -1.25,0.558594 -1.25,1.25 0,0.691406 0.558594,1.25 1.25,1.25 h 1.25 10 1.25 c 0.691406,0 1.25,-0.558594 1.25,-1.25 0,-0.691406 -0.558594,-1.25 -1.25,-1.25 v -0.429688 c 0,-1.65625 -0.660156,-3.246093 -1.832031,-4.417968 L 13.767578,12 16.419922,9.347656 C 17.591797,8.175781 18.251953,6.585937 18.251953,4.929688 V 4.5 c 0.691406,0 1.25,-0.558594 1.25,-1.25 0,-0.691406 -0.558594,-1.25 -1.25,-1.25 h -1.253906 -10 z m 2.5,2.929688 V 4.5 h 7.5 v 0.429688 c 0,0.742187 -0.21875,1.460937 -0.625,2.070312 h -6.25 C 8.470703,6.390625 8.248047,5.671875 8.248047,4.929688 Z M 8.873047,17 c 0.136719,-0.207031 0.296875,-0.402344 0.472656,-0.582031 l 2.652344,-2.648438 2.652344,2.652344 c 0.179687,0.179688 0.335937,0.375 0.476562,0.582031 H 8.873047 Z"
       id="path2"
       style="stroke-width:0.0390625" />
  </g>
</svg>
